PathFileType	4	(X/Y/Z)	./resultDataOpenSim/trcMotMarkerGrf/sub06/qtm-01-01.trc
DataRate	CameraRate	NumFrames	NumMarkers	Units	OrigDataRate	OrigDataStartFrame	OrigNumFrames
250.000000	250.000000	9	24	m	250.000000	237	472
Frame#	Time	L.Toe.Tip			R.Toe.Tip			L.Ankle.Lat			R.Ankle.Lat			L.Ankle.Med			R.Ankle.Med			L.Heel			R.Heel			L.Knee.Lat			R.Knee.Lat			L.Knee.Med			R.Knee.Med			L.Thigh.Upper			R.Thigh.Upper			L.ASIS			R.ASIS			V.Sacral			L.Acromium			R.Acromium			C7			L.Elbow			R.Elbow			L.Wrist.Lat			R.Wrist.Lat
		X1	Y1	Z1	X2	Y2	Z2	X3	Y3	Z3	X4	Y4	Z4	X5	Y5	Z5	X6	Y6	Z6	X7	Y7	Z7	X8	Y8	Z8	X9	Y9	Z9	X10	Y10	Z10	X11	Y11	Z11	X12	Y12	Z12	X13	Y13	Z13	X14	Y14	Z14	X15	Y15	Z15	X16	Y16	Z16	X17	Y17	Z17	X18	Y18	Z18	X19	Y19	Z19	X20	Y20	Z20	X21	Y21	Z21	X22	Y22	Z22	X23	Y23	Z23	X24	Y24	Z24

237	0.944	0.027308313	0.034599131	-0.057248128	0.68952937	0.14614995	0.13670828	-0.0830901	0.094563278	-0.071459165	0.55863991	0.10129395	0.15228523	-0.073452662	0.10638177	0.015951542	0.57281545	0.13111077	0.066259919	-0.15880761	0.085988275	-0.019979951	0.53084243	0.052361002	0.087596236	0.091171516	0.42515369	-0.089620696	0.4210384	0.46228423	0.15888028	0.078235246	0.4285951	0.032051995	0.40647418	0.43508395	0.026730431	0.19088357	0.79815723	-0.15212099	0.2437002	0.78632429	0.19293101	0.27976254	0.83940503	-0.11943255	0.31591422	0.84787417	0.12247664	0.11733581	0.91560723	0.034143343	0.24407749	1.3328126	-0.16068549	0.2299573	1.3090273	0.20045473	0.16218824	1.3581067	0.017037645	0.30134694	1.0162159	-0.24671076	0.071087599	1.0404502	0.24722457	0.53867629	0.95711007	-0.18430954	0.098063808	0.80975459	0.30828689
238	0.948	0.027374078	0.034585498	-0.057342026	0.69975911	0.147753	0.13639731	-0.082082029	0.095630554	-0.071852886	0.56935744	0.10123641	0.15122676	-0.072493366	0.10745367	0.015516883	0.5834898	0.13154121	0.06546474	-0.15799425	0.088071298	-0.020512587	0.54235367	0.052163084	0.08631656	0.095787242	0.424502	-0.089890181	0.42899926	0.46094791	0.15863996	0.083947349	0.42752607	0.031335644	0.41342654	0.43341805	0.026196548	0.19691511	0.79697751	-0.15178204	0.2519898	0.78450848	0.19299592	0.28639869	0.83820283	-0.11948591	0.32347734	0.84651215	0.12229763	0.12504378	0.91405799	0.035793872	0.25070196	1.3312658	-0.16011961	0.23654932	1.3073732	0.20117957	0.16876142	1.3566206	0.017746191	0.30999387	1.0149204	-0.24636245	0.077160134	1.0391615	0.2474455	0.54754171	0.95832382	-0.18256881	0.10255026	0.80848917	0.30912475
239	0.952	0.027479076	0.0346276	-0.057543779	0.70948871	0.14865868	0.13613737	-0.08104001	0.096778461	-0.072185727	0.5794445	0.1008894	0.15005912	-0.071383589	0.10860021	0.01513402	0.59361552	0.13177905	0.064587514	-0.15708633	0.090233179	-0.020962957	0.5531723	0.051847238	0.08485716	0.10048693	0.42386807	-0.090158478	0.43728289	0.4598184	0.15842459	0.089633313	0.42649151	0.030746671	0.42037528	0.43191637	0.025743376	0.20302514	0.79580356	-0.1514453	0.26027549	0.7827593	0.19304602	0.29305073	0.8370003	-0.11959965	0.33098858	0.84511858	0.12205366	0.13257824	0.91251952	0.037575133	0.25733222	1.3297342	-0.1595317	0.24318217	1.3057287	0.20193891	0.17536367	1.3551454	0.018512229	0.31859194	1.0136118	-0.2459666	0.083362373	1.0378664	0.24773006	0.55631671	0.9594462	-0.18083846	0.10732847	0.80723346	0.30998967
240	0.956	0.027597066	0.03467349	-0.057721197	0.7187341	0.14890555	0.13587482	-0.079968041	0.098008644	-0.072476676	0.58890669	0.10029613	0.14884896	-0.070084887	0.10986199	0.01482037	0.60317183	0.13175769	0.063644563	-0.15608655	0.092480321	-0.02133111	0.56327668	0.051379328	0.083337775	0.10524893	0.42324903	-0.090437568	0.44578134	0.458868	0.15822867	0.095231976	0.42551348	0.030311089	0.42735888	0.43060107	0.025353655	0.20922236	0.79463213	-0.15110141	0.26871968	0.78115755	0.19319946	0.29972492	0.8358137	-0.11976432	0.3385143	0.84371349	0.1217768	0.13958194	0.91116855	0.039025114	0.2639733	1.328222	-0.15891623	0.24986989	1.3041005	0.2027285	0.18201172	1.3536773	0.019302213	0.32712623	1.0123101	-0.2454458	0.089696988	1.0365752	0.24807738	0.56499597	0.96047429	-0.17912318	0.11234365	0.80597679	0.31086754
241	0.96	0.027702941	0.034699548	-0.057810694	0.72748855	0.14859183	0.13550826	-0.078843984	0.099314805	-0.072751783	0.59777412	0.099474193	0.14764412	-0.068613384	0.11125537	0.014571558	0.61214625	0.13142697	0.062655071	-0.15499717	0.094827988	-0.021596318	0.57263198	0.050734307	0.08185932	0.11006181	0.42263771	-0.090740514	0.4542683	0.45801894	0.15799136	0.1008003	0.42458739	0.029988446	0.43441981	0.42948225	0.025014308	0.21551175	0.79345505	-0.15073808	0.27731237	0.7797332	0.19347451	0.30642897	0.83465019	-0.11996634	0.34617555	0.8423455	0.12152779	0.14611447	0.91007151	0.039804607	0.27063344	1.3267345	-0.1582662	0.25662031	1.3024951	0.20354629	0.18873901	1.3522131	0.020073157	0.33559243	1.0110302	-0.24479434	0.096146738	1.035292	0.24847779	0.57357693	0.96140929	-0.17742618	0.1175107	0.80470758	0.31173867
242	0.964	0.027795269	0.034709713	-0.057840372	0.73573954	0.14780394	0.13492762	-0.077624991	0.10068577	-0.073038702	0.60607055	0.098430813	0.14647944	-0.067047298	0.11274192	0.014334783	0.62052665	0.13075679	0.061632872	-0.15382436	0.097285986	-0.02176517	0.58120804	0.049885341	0.080490709	0.11493556	0.42202688	-0.091069844	0.46251067	0.45718017	0.15763232	0.10643447	0.42369292	0.029718588	0.4415985	0.42856076	0.024715765	0.22189621	0.79226492	-0.1503561	0.28586106	0.77844945	0.19378642	0.31316763	0.83350771	-0.12019768	0.35402521	0.84104238	0.12133405	0.1527094	0.90910885	0.040005468	0.27732015	1.3252795	-0.15757744	0.26343267	1.3009184	0.20439027	0.19556711	1.3507588	0.020798568	0.34399083	1.0097742	-0.24403842	0.10270333	1.0340131	0.24892468	0.58206072	0.96225504	-0.17575037	0.12277619	0.80342793	0.31259572
243	0.968	0.027890775	0.034707606	-0.057852596	0.74347439	0.14660375	0.1340532	-0.076273004	0.10211077	-0.073358654	0.61380289	0.097171804	0.14537582	-0.065467907	0.11425859	0.014032032	0.62829504	0.12973534	0.060584271	-0.15258344	0.099851602	-0.021931681	0.58899641	0.048800994	0.079271046	0.11990113	0.42141047	-0.091417038	0.47044275	0.45630626	0.15713201	0.11226415	0.42279588	0.029423078	0.44893739	0.42784192	0.024453964	0.22837793	0.79106034	-0.14997166	0.29418911	0.77726972	0.19405802	0.31994616	0.83238054	-0.12045331	0.36198284	0.83978225	0.12115603	0.15984467	0.90811784	0.040198055	0.28403514	1.323864	-0.15685273	0.2703047	1.2993774	0.20525743	0.20248153	1.3493288	0.021493469	0.35231734	1.0085365	-0.24319041	0.10937467	1.0327261	0.24941796	0.5904503	0.96301512	-0.17409858	0.12813291	0.80215161	0.31344383
244	0.972	0.028004665	0.03469862	-0.057869805	0.75067868	0.14503241	0.13286111	-0.074775029	0.10358683	-0.07371648	0.62096227	0.095705901	0.14433854	-0.063905508	0.11576732	0.013610769	0.63543624	0.12836381	0.059517884	-0.1512914	0.10252239	-0.022244345	0.59600772	0.047458612	0.078217425	0.12499826	0.42078349	-0.091767821	0.47820693	0.45541858	0.15655309	0.11836898	0.42186475	0.029051251	0.45647874	0.4273396	0.024232917	0.23495757	0.78984312	-0.14959982	0.30228555	0.77620928	0.19429637	0.32677214	0.83126271	-0.12071905	0.36993929	0.83853212	0.12094172	0.16754143	0.90702297	0.040898385	0.2907789	1.3224915	-0.15609457	0.27723375	1.2978781	0.2061453	0.20943884	1.3479354	0.022217167	0.36056497	1.0073164	-0.24226217	0.11617571	1.031414	0.24996022	0.59874698	0.96369069	-0.1724716	0.13363203	0.80089332	0.31429057
245	0.976	0.028142798	0.034691918	-0.057898509	0.75734436	0.14309338	0.131397	-0.073138857	0.10511879	-0.074108172	0.62753179	0.094043398	0.14335857	-0.062346579	0.11726705	0.01306791	0.64195244	0.12664714	0.058456046	-0.14993137	0.10530819	-0.022783183	0.60226397	0.045860051	0.077326155	0.13026686	0.42013882	-0.092104209	0.48600804	0.45456803	0.15597263	0.12466604	0.4208934	0.028644686	0.46423039	0.42705367	0.024059028	0.24163386	0.78861582	-0.14924113	0.31022285	0.77529535	0.19454181	0.33364065	0.83014915	-0.12096758	0.3778643	0.83728966	0.120683	0.17549196	0.9058371	0.042079635	0.29755743	1.3211625	-0.15529735	0.28421515	1.296423	0.2070532	0.21638999	1.3465855	0.023049893	0.3687332	1.0061201	-0.24128425	0.12310575	1.0300718	0.25054987	0.6069503	0.96428088	-0.17086516	0.13938125	0.79966007	0.31514091
